<svg xmlns="http://www.w3.org/2000/svg" version="1.1" xmlns:xlink="http://www.w3.org/1999/xlink" viewBox="0 0 9.09061238721981 9.09061238721981"><g transform="matrix(0.8571428571428572,0,0,0.8571428571428572,3.1569970780491743,3.1602246613982334)"><rect width="10.605714451756445" height="10.605714451756445" x="-3.6831632577240363" y="-3.6869287716312726" fill="#212245"></rect><g><path d=" M -1.554336203724167 2.223033545483746 Q -1.5729620554782704 2.2214970348856826 -1.5842740877118136 2.224557595015753 Q -1.595586119945357 2.2276181551458234 -1.600075046674045 2.2343968783206094 Q -1.6045639734027333 2.241175601495395 -1.6058229427174697 2.2496096196890276 Q -1.6070819120322062 2.2580436378826603 -1.6063086399632922 2.267445328419851 Q -1.6055353678943782 2.2768470189570413 -1.606323002532717 2.285153513811921 Q -1.607110637171056 2.293460008666801 -1.610656894546949 2.2999836851640807 Q -1.6142031519228417 2.3065073616613603 -1.6241011801271923 2.309185351775172 Q -1.6467252445942788 2.315306472035313 -1.6691799117774844 2.311770855080758 Q -1.6916345789606897 2.308235238126202 -1.711499413808649 2.294640934601385 Q -1.7313642486566088 2.2810466310765674 -1.7473971528089518 2.2573104999728044 Q -1.7634300569612948 2.233574368869041 -1.7727392606902592 2.1991669374920133 Q -1.7821759877579764 2.164288171438588 -1.7803619358765856 2.1354704861240146 Q -1.778547883995195 2.1066528008094414 -1.7682472995537055 2.0848970036044356 Q -1.7579467151122161 2.0631412063994303 -1.7403379348016224 2.0487661056508752 Q -1.7227291544910286 2.0343910049023206 -1.7001050900239418 2.02826988464218 Q -1.6887930577903987 2.025209324512109 -1.6822500019538116 2.029762012910174 Q -1.6757069461172247 2.0343147013082383 -1.6702647096144037 2.0432119221418725 Q -1.6648224731115828 2.0521091429755067 -1.6592139545913946 2.063490560529882 Q -1.6536054360712067 2.0748719780842566 -1.644290001809214 2.0849975415904094 Q -1.6349745675472211 2.095123105096562 -1.6203219255153392 2.102540051846686 Q -1.6056692834834572 2.109956998596809 -1.5820750382878717 2.111160945160139 L -1.1977308608473716 2.159430552111173 Q -1.125545368534333 2.168227073241536 -1.0768459774174342 2.175284551462795 Q -1.028146586300535 2.1823420296840537 -0.9970334808884087 2.192640105740602 Q -0.9659203754762823 2.2029381817971503 -0.9498068387001969 2.218559103054163 Q -0.9336933019241114 2.2341800243111756 -0.9266795182926999 2.2601034315130457 Q -0.920558398032559 2.2827274959801325 -0.929381216775479 2.304336390507078 Q -0.9382040355183989 2.3259452850340234 -0.9649625749551916 2.354177261139725 Q -0.9917211143919842 2.3824092372454264 -1.0379431462027435 2.4209655870202336 Q -1.0841651780135027 2.4595219367950407 -1.1530975305665465 2.5150982424050556 L -1.415402034537785 2.727195367211852 Q -1.4332464821865774 2.7416342296297835 -1.441988668305755 2.7551279143099787 Q -1.4507308544249327 2.7686215989901735 -1.4539889300961608 2.7808844326129085 Q -1.4572470057673892 2.7931472662356436 -1.4572251180431408 2.8035110054649364 Q -1.4572032303188927 2.813874744694229 -1.4582265322954306 2.8222450012184854 Q -1.4592498342719682 2.8306152577427417 -1.4634587113323883 2.8365594555641778 Q -1.467667588392808 2.8425036533856143 -1.4789796206263515 2.8455642135156847 Q -1.5374251204996585 2.8613771075210486 -1.5799709440694798 2.80788814690474 Q -1.6225167676393009 2.7543991862884316 -1.6536324622950171 2.639393525247408 Q -1.6686802162678636 2.5837760334324864 -1.6740493453017655 2.538691678130739 Q -1.6794184743356675 2.493607322828992 -1.6739556447303934 2.4605144903996807 Q -1.668492815125119 2.4274216579703696 -1.6516629305348944 2.4064284924129407 Q -1.6348330459446703 2.3854353268555117 -1.6056102960080165 2.3775288798528296 Q -1.5961836024800637 2.374978413077771 -1.5897236876521603 2.3782890031154653 Q -1.583263772824257 2.381599593153159 -1.578522914684577 2.387904473266606 Q -1.5737820565448972 2.3942093533800533 -1.569601297741754 2.402183284200199 Q -1.5654205389386107 2.4101572150203445 -1.5602083461225331 2.416334571795039 Q -1.5549961533064556 2.4225119285697327 -1.5483005711403532 2.4257587569380505 Q -1.541604988974251 2.429005585306368 -1.531235626093503 2.4262000718538035 Q -1.5255796099767314 2.424669791788768 -1.5187202541782032 2.421043508670706 Q -1.511860898379675 2.4174172255526436 -1.5034543915617458 2.411096081366404 L -1.3358343485581718 2.282787858936017 Q -1.3262688843885555 2.275141475380723 -1.319423284277879 2.2677251355121726 Q -1.3125776841672028 2.2603087956436223 -1.314363010909744 2.2537101101740555 Q -1.3157657676360262 2.2485254287336813 -1.3244298295164025 2.2445465953600046 Q -1.3330938913967787 2.2405677619863282 -1.3527899358424302 2.2388149633893732 L -1.554336203724167 2.223033545483746 M -1.3471528997082103 1.6487619536548161 L -1.3401018024577676 1.4960926646554702 L -1.6274481129184304 1.558096919946657 L -1.3471528997082103 1.6487619536548161 M -1.0403099886603944 1.7890444772949603 Q -1.0419770212371764 1.8251388139912912 -1.0525060242308262 1.8520254252890707 Q -1.063035027224476 1.87891203658685 -1.0797320497144771 1.8964709429026203 Q -1.096429072204478 1.9140298492183905 -1.1175869496173556 1.9223398966875398 Q -1.138744827030233 1.9306499441566891 -1.1621573697521772 1.929568625728506 Q -1.1738636411131496 1.9290279665144148 -1.178737332693783 1.9234260537344707 Q -1.1836110242744162 1.917824140954527 -1.1861320977040908 1.9089092726302748 Q -1.1886531711337651 1.8999944043060228 -1.1905851096540903 1.8889071375688422 Q -1.1925170481744154 1.8778198708316618 -1.1983398134147711 1.866308503703097 Q -1.2041625786551267 1.8547971365745326 -1.2156396538571226 1.8440022261859637 Q -1.2271167290591183 1.8332073157973945 -1.249215837158841 1.8248546327031117 L -1.6094950602447848 1.687969750812788 Q -1.619580355414859 1.6840823448535078 -1.6273056901867853 1.6820147408039716 Q -1.6350310249587117 1.6799471367544356 -1.6408841606391977 1.67967680714739 Q -1.6560047611471203 1.6789784556625218 -1.661753102464214 1.6870225957367517 Q -1.6675014437813078 1.6950667358109819 -1.6708898247002542 1.7049306777949562 Q -1.6742782056192 1.7147946197789303 -1.678807143669526 1.7228950785212949 Q -1.6833360817198517 1.7309955372636594 -1.6960178756942383 1.7304098231150604 Q -1.6994322048411885 1.7302521308442838 -1.7013607226007634 1.7296742596685613 Q -1.7347909780910205 1.7232422513609766 -1.7559703815197754 1.7002679927991053 Q -1.7771497849485303 1.677293734237234 -1.7883971632658615 1.6403585390053235 Q -1.7996445415831928 1.603423343773413 -1.8027346417643366 1.5539116496561962 Q -1.8058247419454807 1.5043999555389798 -1.8030763909405159 1.4448930761207044 Q -1.800756061813373 1.3946536615298653 -1.7949690063575843 1.3487291740504408 Q -1.7891819509017952 1.3028046865710163 -1.7752758307228262 1.2662980139426163 Q -1.7613697105438573 1.2297913413142163 -1.7377837896053827 1.2059517781658258 Q -1.7141978686669082 1.182112215017435 -1.6757920472676875 1.1760651765559174 Q -1.6708693792661085 1.1753149286150413 -1.6689183340392795 1.1754050384840564 Q -1.6606263918252577 1.1757880054273713 -1.656694431657158 1.180613221312747 Q -1.652762471489058 1.1854384371981224 -1.6506390494970755 1.192379732828292 Q -1.648515627505093 1.1993210284584612 -1.647168902407679 1.2072040555011645 Q -1.6458221773102646 1.2150870825438678 -1.642723232704868 1.222073433108545 Q -1.639624288099471 1.229059783673222 -1.6332535213978354 1.2339976368948666 Q -1.6268827546961997 1.2389354901165113 -1.6151764833352276 1.2394761493306028 Q -1.6049334958943768 1.2399492261429326 -1.5886346255677557 1.236302780801944 L -1.2178350752742821 1.1454031324600167 Q -1.1955929593981596 1.1400759714992448 -1.182948377385404 1.1308839320464465 Q -1.1703037953726485 1.1216918925936485 -1.1634560303722443 1.1110101202670366 Q -1.1566082653718404 1.1003283479404247 -1.1536625908250937 1.0894663558757822 Q -1.150716916278347 1.0786043638111398 -1.1473848540275355 1.0699598250939335 Q -1.1440527917767238 1.0613152863767272 -1.1386834959165066 1.0561864504091134 Q -1.1333142000562892 1.0510576144414996 -1.1216079286953171 1.0515982736555909 Q -1.0606377653569201 1.0544142070623175 -1.0364730561104136 1.1185856900601294 Q -1.0123083468639071 1.1827571730579416 -1.017805048873837 1.3017709318944923 Q -1.0204632900097867 1.359326766085939 -1.0291093309040573 1.4036528048417192 Q -1.0377553717983279 1.4479788435974992 -1.0530757994764726 1.4780657731033175 Q -1.068396227154617 1.508152702609136 -1.0910776286421888 1.5229912090506976 Q -1.1137590301297606 1.5378297154922593 -1.1440002311456055 1.536433012522523 Q -1.1542432185864562 1.535959935710193 -1.1591507013679703 1.5310896648903098 Q -1.1640581841494844 1.5262193940704267 -1.1664254867948205 1.5192668347066303 Q -1.1687927894401566 1.5123142753428338 -1.1703608677236705 1.5039322232597965 Q -1.1719289460071844 1.4955501711767594 -1.1752717712659349 1.4885525568784552 Q -1.1786145965246853 1.4815549425801513 -1.185473124533028 1.4765945618912528 Q -1.192331652541371 1.4716341812023543 -1.2055012078224647 1.4710259395865015 Q -1.2167197178767297 1.4705078078396638 -1.2310224880420144 1.4732688404362535 L -1.2650384576808706 1.4795186261030553 L -1.274184609385918 1.6775497166261686 L -1.2410697384372142 1.6908103832276538 Q -1.2228276658566413 1.6980073239704918 -1.211121394495669 1.698547983184583 Q -1.199902884441404 1.6990661149314208 -1.193591857168653 1.6947139758583754 Q -1.1872808298959021 1.69036183678533 -1.1837949968607522 1.683679607028579 Q -1.1803091638256022 1.6769973772718285 -1.1779751516554586 1.6687955449268217 Q -1.1756411394853152 1.660593712581815 -1.1726430677568724 1.6538889553578104 Q -1.1696449960284296 1.647184198133806 -1.1640656107157394 1.6427982678598798 Q -1.1584862254030492 1.6384123375859536 -1.1487309992689059 1.6388628869310298 Q -1.1253184565469614 1.6399442053592126 -1.105016622889729 1.650169087544936 Q -1.0847147892324964 1.6603939697306593 -1.0697073267865311 1.6794171614179274 Q -1.0546998643405658 1.6984403531051953 -1.046682673945716 1.7259391275052658 Q -1.0386654835508662 1.7534379019053365 -1.0403099886603944 1.7890444772949603 M -0.8494659983956205 0.1364002408640873 Q -0.8252422647609897 0.1318503762123382 -0.8089480171824506 0.1228647834467207 Q -0.7926537696039115 0.11387919068110319 -0.7818131621756803 0.10336876743306767 Q -0.7709725547474489 0.09285834418503214 -0.7636259290021301 0.08245301222315649 Q -0.7562793032568114 0.07204768026128072 -0.750304505560876 0.06424249469823651 Q -0.7443297078649407 0.05643730913519229 -0.737862678304054 0.05308683715221507 Q -0.7313956487431673 0.04973636516923785 -0.7219605414115453 0.05375150439777798 Q -0.6900608928141566 0.06732649893236609 -0.6741399941961386 0.0878987258251892 Q -0.6582190955781204 0.10847095271801244 -0.6581336609802267 0.14193859657814434 Q -0.6580482263823331 0.17540624043827624 -0.673181723446565 0.22468494526371674 Q -0.688315220510797 0.27396365008915735 -0.7183331661717873 0.3445023096636647 Q -0.7317169636002545 0.3759526674357381 -0.7482360803321404 0.397312967104415 Q -0.7647551970640263 0.4186732667730919 -0.7838265490478689 0.4323142629579967 Q -0.8028979010317115 0.44595525914290135 -0.8239718525225854 0.45370281708528226 Q -0.8450458040134593 0.4614503750276632 -0.8671568767476603 0.46477666769651393 Q -0.8892679494818613 0.4681029603653645 -0.9121867516801822 0.4689628998615304 Q -0.9351055538785029 0.4698228393576964 -0.9578666072772395 0.4696885986501712 L -1.1018891673269982 0.46146488568007826 L -1.1041835326004497 0.46685637558386217 Q -1.1103018399963203 0.4812336819939529 -1.1150530657093571 0.49115152845742693 Q -1.119804291422394 0.501069374920901 -1.1268211804688955 0.5150642871187497 L -1.0302236530260986 0.5561716649347557 Q -1.0109041475375393 0.564393140497957 -0.9978268024565198 0.5635903811410758 Q -0.9847494573755002 0.562787621784195 -0.9759164195615391 0.5569947522019704 Q -0.9670833817475778 0.5512018826197459 -0.960821788392461 0.5427227608187287 Q -0.9545601950373442 0.5342436390177114 -0.948422902175275 0.5273035867987612 Q -0.9422856093132057 0.5203635345798109 -0.9352736903739433 0.516979614290297 Q -0.9282617714346807 0.5135956940007831 -0.9174787916271128 0.5181844245476861 Q -0.861317438462696 0.5420840628128059 -0.8610462243472986 0.610654018668197 Q -0.8607750102319012 0.6792239745235882 -0.9074271041254149 0.7888509359005296 Q -0.929988362647688 0.8418672532877389 -0.9535483239995127 0.880396202871459 Q -0.9771082853513373 0.9189251524551791 -1.0018628930053843 0.9415567115129402 Q -1.0266175006594311 0.9641882705707012 -1.0530494937475523 0.9701863526180065 Q -1.0794814868356735 0.9761844346653117 -1.107337518005224 0.9643302140858123 Q -1.118120497812792 0.9597414835389093 -1.1205436862051517 0.9523424240208552 Q -1.1229668745975112 0.9449433645028011 -1.1220920247796287 0.9360291909761176 Q -1.1212171749617463 0.9271150174494339 -1.1195440884128434 0.9169485699998648 Q -1.1178710018639404 0.9067821225502957 -1.1201411878232652 0.8965295692807653 Q -1.12241137378259 0.8862770160112351 -1.1308999883167066 0.8762967955605481 Q -1.139388602850823 0.8663165751098612 -1.1596066899900133 0.857712705334418 L -1.4983719722777746 0.7135500873192155 Q -1.5181407685916493 0.7051374146498934 -1.5314427590853263 0.7058445754537139 Q -1.5447447495790037 0.7065517362575344 -1.5537068342525622 0.7120243618740408 Q -1.5626689189261205 0.7174969874905472 -1.568834913728177 0.7257514638789068 Q -1.5750009085302332 0.7340059402672663 -1.5808179574265844 0.7408169456266194 Q -1.5866350063229353 0.7476279509859725 -1.5936469252621979 0.7510118712754863 Q -1.6006588442014604 0.7543957915650004 -1.6114418240090282 0.7498070610180974 Q -1.639297855178579 0.7379528404385979 -1.6527905952969988 0.7141686811554939 Q -1.6662833354154185 0.69038452187239 -1.6667559105921037 0.6559561461151036 Q -1.667228485768789 0.6215277703578173 -1.655512581041297 0.5771625626708583 Q -1.643796676313805 0.5327973549838994 -1.6212354177915318 0.47978103759669 L -1.5177977833800935 0.2367147011010946 Q -1.487397443506861 0.16527745987595654 -1.4562422554236227 0.11326503916622677 Q -1.4250870673403842 0.06125261845649699 -1.3937935634051382 0.02574937426417545 Q -1.3625000594698924 -0.009753869928145864 -1.33126418315531 -0.030157960325528865 Q -1.3000283068407275 -0.050562050722911867 -1.2698824330235856 -0.05842893905110147 Q -1.239736559206444 -0.06629582737929107 -1.2110056782190108 -0.06335578032647526 Q -1.1822747972315777 -0.060415733273659455 -1.1553173477126577 -0.048943906906401935 Q -1.126113444067161 -0.036516095008539695 -1.1006473767241223 -0.01904573911259866 Q -1.0751813093810836 -0.001575383216657622 -1.0568754170437924 0.023991700268058747 Q -1.0385695247065012 0.049558783752775115 -1.028862532037414 0.08473296246834672 Q -1.0191555393683271 0.11990714118391832 -1.021469785070734 0.16774259872104158 L -0.8494659983956205 0.1364002408640873 M -1.1684700915529396 0.4246406810262844 Q -1.1512623520020533 0.3842045067479043 -1.1690997443071414 0.3537955691043294 Q -1.1869371366122294 0.3233866314607545 -1.2336633824450243 0.3035021324241749 L -1.2471421072044842 0.29776621924054614 Q -1.2767953016752962 0.28514721023656286 -1.3067974420518134 0.27397167226158614 Q -1.3367995824283307 0.2627961342866094 -1.3632840092891871 0.26081207276439844 Q -1.3897684361500435 0.25882801124218746 -1.4114446808992673 0.2692378658299236 Q -1.4331209256484914 0.27964772041765973 -1.4463135259708373 0.3106487873644178 Q -1.4543438044279176 0.3295190020276618 -1.4529292590795873 0.34365267755889617 Q -1.4515147137312572 0.3577863530901306 -1.443441941715919 0.36812026581307244 Q -1.4353691697005813 0.37845417853601426 -1.4224305879529475 0.3860828535739649 Q -1.4094920062053136 0.3937115286119155 -1.3942161181445922 0.40021223022002805 L -1.1992238999577376 0.4831917742765238 Q -1.1976848303756706 0.4833160747695714 -1.1936601984140311 0.47759959453351963 Q -1.1904672514899488 0.47259049884197746 -1.18463099338671 0.46074644221764494 Q -1.1787947352834713 0.4489023855933124 -1.1684700915529396 0.4246406810262844 M -0.215849271522758 -0.6602035573838647 Q -0.18174500446536346 -0.627337474878575 -0.16313042008042267 -0.5917677287042982 Q -0.144515835695482 -0.5561979825300213 -0.13916942044575253 -0.5191742862076751 Q -0.13382300519602308 -0.4821505898853291 -0.14089769509940964 -0.44455191937000116 Q -0.14797238500279636 -0.4069532488546733 -0.16473204573820094 -0.37021149525289754 Q -0.18149170647360546 -0.3334697416511218 -0.20673768367689793 -0.29812505532514766 Q -0.2319836608801903 -0.26278036899917345 -0.26349444101412783 -0.23008246346991884 Q -0.3011040818191501 -0.1910559310640343 -0.34023496725508495 -0.15959844480335916 Q -0.37936585269101974 -0.12814095854268406 -0.41919644835416603 -0.10651232633205196 Q -0.4590270440173123 -0.08488369412141988 -0.49854087312915585 -0.0741386871069358 Q -0.5380547022409995 -0.06339368009245172 -0.5769512335762932 -0.06595513658076974 Q -0.6158477649115869 -0.06851659306908778 -0.6529347265007992 -0.08526987140989387 Q -0.6900216880900114 -0.10202314975069995 -0.724477545529441 -0.1352280578488277 L -0.9544176553803285 -0.3568199955649046 Q -0.9698876321898683 -0.3717283216497783 -0.9825675036637822 -0.3758104640898903 Q -0.995247375137696 -0.3798926065300023 -1.0055717027877993 -0.3779750947548653 Q -1.0158960304379023 -0.37605758297972836 -1.024599907001257 -0.3705441081122012 Q -1.033303783564612 -0.3650306332446739 -1.04116697854047 -0.3607413423196707 Q -1.049030173516328 -0.35645205139466746 -1.056787779641752 -0.3557906355350469 Q -1.0645453857671758 -0.3551292196754263 -1.0729835549360158 -0.36326103390353925 Q -1.0947821586221855 -0.3842682206594976 -1.0994160988555066 -0.4107726469569277 Q -1.1040500390888277 -0.4372770732543577 -1.092893765424448 -0.4689080015274292 Q -1.0817374917600677 -0.5005389298005004 -1.0554814201728597 -0.5372835952600161 Q -1.0292253485856517 -0.5740282607195317 -0.9892439286307632 -0.6155159257996613 Q -0.9479072063045225 -0.6584099524079309 -0.9113111304202746 -0.686885302815907 Q -0.8747150545360265 -0.715360653223883 -0.8431793035028137 -0.7280301130872213 Q -0.8116435524696008 -0.7406995729505594 -0.7849859487018074 -0.7370485214854041 Q -0.7583283449340137 -0.7333974700202488 -0.736529741247844 -0.7123902832642904 Q -0.7280915720790041 -0.7042584690361775 -0.7284657801816932 -0.6964817157269582 Q -0.7288399882843821 -0.6887049624177388 -0.7328356890578553 -0.6806885899715172 Q -0.7368313898313285 -0.6726722175252955 -0.7423645705617699 -0.6637641043347895 Q -0.7478977512922111 -0.6548559911442833 -0.7496081145824569 -0.6446372523446144 Q -0.7513184778727026 -0.6344185135449456 -0.7467704206269017 -0.6218982019359937 Q -0.7422223633811007 -0.6093778903270417 -0.7267523865715608 -0.594469564242168 L -0.49610909595660335 -0.37219997534041505 Q -0.47149776921415365 -0.34848218384175245 -0.4474933286376781 -0.3389115374333885 Q -0.4234888880612025 -0.32934089102502456 -0.40039186487594824 -0.3314945514003052 Q -0.377294841690694 -0.3336482117755859 -0.3556007094967211 -0.34630837738658565 Q -0.3339065773027483 -0.35896854299758546 -0.3139158673253041 -0.37971237553765025 Q -0.29528045971921196 -0.399049846549575 -0.28428430459891263 -0.42066336079238886 Q -0.27328814947861324 -0.44227687503520274 -0.2723285555723668 -0.4650861317844067 Q -0.27136896166612035 -0.4878953885336108 -0.28165096573265536 -0.5117054454143921 Q -0.29193296979919037 -0.5355155022951734 -0.31619270615960515 -0.558894468200998 L -0.5461328160104926 -0.7804864059170749 Q -0.5616027928200324 -0.7953947320019485 -0.5742826642939463 -0.7994768744420606 Q -0.5869625357678602 -0.8035590168821727 -0.5972868634179633 -0.8016415051070356 Q -0.6076111910680664 -0.7997239933318987 -0.6164844804278402 -0.794034723273354 Q -0.6253577697876139 -0.7883454532148092 -0.6332209647634721 -0.784056162289806 Q -0.6410841597393302 -0.7797668713648027 -0.6488417658647542 -0.7791054555051822 Q -0.6565993719901781 -0.7784440396455616 -0.6650375411590179 -0.7865758538736747 Q -0.6868361448451877 -0.8075830406296329 -0.6923171490606039 -0.8332084909719755 Q -0.69779815327602 -0.8588339413143181 -0.6922325018934677 -0.8846636282838121 Q -0.6866668505109154 -0.9104933152533059 -0.6727779130622957 -0.9344049317685443 Q -0.658888975613676 -0.9583165482837825 -0.6416088703789361 -0.9762476577675674 Q -0.6263617187012244 -0.9920692249591423 -0.603826904919755 -1.005953574512666 Q -0.5812920911382855 -1.0198379240661897 -0.5560246135725764 -1.0260029618618804 Q -0.5307571360068674 -1.0321679996575712 -0.5051160090175879 -1.0274621770463108 Q -0.47947488202830835 -1.0227563544350506 -0.4576762783421386 -1.0017491676790922 Q -0.4492381091732987 -0.9936173534509793 -0.44961231727598777 -0.9858406001417599 Q -0.4499865253786767 -0.9780638468325407 -0.4539758437575514 -0.9697022663988824 Q -0.45796516213642613 -0.9613406859652243 -0.4633225476758499 -0.9522631599782991 Q -0.46867993321527374 -0.943185633991374 -0.4702081189199036 -0.9324522744078496 Q -0.4717363046245333 -0.9217189148243252 -0.4670124521877148 -0.9090291904189542 Q -0.4622885997508964 -0.8963394660135835 -0.4461154421772866 -0.8807534887430337 L -0.215849271522758 -0.6602035573838647 M 0.11470284900565625 -1.017969351610651 Q 0.11055689948131989 -1.018643204261585 0.10880603948537265 -1.017777648636442 Q 0.10486660449449134 -1.0158301484798704 0.1070304935573487 -1.0114529984900023 Q 0.10767966027620593 -1.0101398534930417 0.10855015308776422 -1.009480812401354 L 0.18255515903748618 -0.8597822827478641 Q 0.19229265982034432 -0.8400851077934575 0.20295496246532946 -0.8317388996942161 Q 0.21361726511031465 -0.8233926915949745 0.22430919087379186 -0.8215973969212893 Q 0.23500111663726908 -0.819802102247604 0.24527507614742083 -0.8221576942846703 Q 0.25554903565757253 -0.8245132863217368 0.26472623907704956 -0.8257819966409592 Q 0.27390344249652665 -0.8270507069601816 0.2814281060003686 -0.8250513663462489 Q 0.2889527695042106 -0.8230520257323162 0.2941461032550683 -0.8125468657566327 Q 0.30756221544478396 -0.7854085358194502 0.30526255375550476 -0.759760665942186 Q 0.30296289206622556 -0.7341127960649216 0.29030823093893615 -0.7123331956235108 Q 0.2776535698116467 -0.6905535951821 0.25715706760070967 -0.6730676362094912 Q 0.23666056538977268 -0.6555816772368823 0.21433710044144524 -0.6445458430163097 Q 0.1880742005022365 -0.6315625086391655 0.16042205282462418 -0.6252456879203433 Q 0.1327699051470118 -0.6189288672015212 0.10756221886194199 -0.6219908272492157 Q 0.08235453257687216 -0.6250527872969104 0.061017584320863474 -0.6390156562347449 Q 0.03968063606485479 -0.6529785251725795 0.026264523875139115 -0.6801168551097618 Q 0.021071190124281432 -0.6906220150854453 0.024051686596122945 -0.6978146894502357 Q 0.027032183067964462 -0.705007363815026 0.033502056565662124 -0.7112016021694539 Q 0.039971930063359785 -0.7173958405238817 0.047863143011160764 -0.7240203880976734 Q 0.05575435595896172 -0.730644935671465 0.06070950711265924 -0.7399031790188006 Q 0.06566465826635674 -0.7491614223661363 0.06572390450334081 -0.7622632492172485 Q 0.06578315074032487 -0.7753650760683608 0.05604564995746672 -0.7950622510227674 L -0.10711158538197874 -1.125099360258824 Q -0.11663269725855119 -1.1443588202142436 -0.1271868054503935 -1.1524861708139915 Q -0.13774091364223578 -1.1606135214137399 -0.14810578745307673 -1.1622981530410745 Q -0.15847066126391762 -1.1639827846684092 -0.16852576327457594 -1.1617353870844858 Q -0.17858086528523434 -1.1594879895005623 -0.18743101675207507 -1.1581086161349894 Q -0.19628116821891584 -1.1567292427694165 -0.2038058317227578 -1.1587285833833492 Q -0.2113304952265998 -1.1607279239972819 -0.21652382897745748 -1.1712330839729654 Q -0.2299399411671732 -1.1983714139101478 -0.22862637252221812 -1.2232594540222042 Q -0.22731280387726316 -1.2481474941342607 -0.21443928525048028 -1.2700352890288145 Q -0.20156576662369746 -1.291923083923368 -0.17866183191833293 -1.3105991818805487 Q -0.15575789721296845 -1.329275279837729 -0.1259932772818652 -1.3439897254651592 Q -0.10323209733455097 -1.3552419485920175 -0.0849784791691168 -1.3596359550863446 Q -0.06672486100368255 -1.364029961580672 -0.04784182486505248 -1.3627435474610012 Q -0.02895878872642238 -1.3614571333413306 -0.005622499856481 -1.355018927907338 Q 0.01771378901346038 -1.3485807224733455 0.05086163646248998 -1.3388226256488367 L 0.41722400683851685 -1.229073659491606 Q 0.418532214649062 -1.228631007306204 0.42049699495808723 -1.2285129384802305 Q 0.4224617752671126 -1.2283948696542568 0.42465035026204656 -1.2294768141856856 Q 0.42727664025596745 -1.2307751476234 0.42849393376582345 -1.234372719102399 Q 0.42971122727567934 -1.237970290581398 0.4260326158688218 -1.2454114455641738 L 0.37020427804710176 -1.3583419153027714 Q 0.36025038835795786 -1.378476805256165 0.3495880857129727 -1.3868230133554063 Q 0.33892578306798754 -1.3951692214546476 0.3282338573045103 -1.396964516128333 Q 0.31754193154103316 -1.3987598108020185 0.30726797203088135 -1.396404218764952 Q 0.29699401252072966 -1.3940486267278855 0.2878168091012526 -1.3927799164086632 Q 0.27863960568177554 -1.3915112060894408 0.2711149421779335 -1.3935105467033735 Q 0.2635902786740916 -1.395509887317306 0.25839694492323395 -1.4060150472929895 Q 0.24498083273351823 -1.4331533772301719 0.24738868887594023 -1.4585823896079428 Q 0.2497965450183623 -1.4840114019857138 0.26245120614565176 -1.5057910024271246 Q 0.27510586727294123 -1.5275706028685354 0.2956023694838782 -1.5450565618411443 Q 0.3160988716948152 -1.5625425208137533 0.3384223366431427 -1.5735783550343259 Q 0.3646852365823514 -1.58656168941147 0.3923373842599638 -1.592878510130292 Q 0.4199895319375761 -1.5991953308491142 0.4451972182226459 -1.5961333708014198 Q 0.4704049045077157 -1.5930714107537252 0.4916336583105816 -1.579327399315384 Q 0.5128624121134474 -1.5655833878770429 0.5262785243031631 -1.5384450579398605 Q 0.5314718580540208 -1.527939897964177 0.5287102190816726 -1.5208554180525296 Q 0.5259485801093244 -1.513770938140882 0.5194787066116269 -1.5075766997864541 Q 0.5130088331139291 -1.5013824614320264 0.5051176201661283 -1.4947579138582345 Q 0.4972264072183272 -1.488133366284443 0.4922712560646298 -1.4788751229371073 Q 0.4873161049109323 -1.469616879589772 0.4875839106265844 -1.456404389692309 Q 0.4878517163422366 -1.443191899794846 0.49737282821880907 -1.4239324398394264 L 0.7048897893468306 -1.0041637558110734 Q 0.7191714571616892 -0.9752745658779437 0.7234449262368353 -0.9545102579513545 Q 0.7277183953119812 -0.9337459500247652 0.7238303771304664 -0.9190236749697176 Q 0.7199423589489515 -0.9043013999146698 0.709414981634399 -0.894194881094645 Q 0.6988876043198465 -0.8840883622746203 0.6840052943542949 -0.8767311394609052 Q 0.6735001343786114 -0.8715378057100476 0.6599556553420969 -0.8702888441364864 Q 0.6464111763055824 -0.8690398825629255 0.629497857662393 -0.871300046760882 Q 0.6125845390192036 -0.8735602109588384 0.5909892357723788 -0.8786803342094551 Q 0.569393932525554 -0.883800457460072 0.5430035130355355 -0.8909075783585831 L 0.11470284900565625 -1.017969351610651 M 1.6065370665843526 -1.4025736800078894 Q 1.6289862542991502 -1.4033000988434745 1.642303559552008 -1.4144788348678643 Q 1.6556208648048658 -1.425657570892254 1.661916308013502 -1.4424715327618476 Q 1.6682117512221384 -1.459285494631441 1.6697446154313127 -1.479853641778868 Q 1.6712774796404868 -1.5004217889262945 1.6706616028016212 -1.5194547959018836 Q 1.6702510182423773 -1.5321434672189431 1.669415574718515 -1.5428642435426378 Q 1.6685801311946529 -1.5535850198663326 1.6682958803459456 -1.562369484624297 Q 1.6673957526583727 -1.5901869563578503 1.6642916129244 -1.6181773782891704 Q 1.6611874731904277 -1.6461678002204905 1.6519206025068218 -1.668340632943489 Q 1.642653731823216 -1.6905134656664877 1.6251148684264796 -1.7041135044596105 Q 1.607576005029743 -1.7177135432527335 1.578294455836529 -1.7167660404237095 Q 1.5597494746808267 -1.7161659552986608 1.5494543159759717 -1.7097261107030077 Q 1.5391591572711167 -1.7032862661073545 1.5343823038662796 -1.6923838850747634 Q 1.5296054504614427 -1.6814815040421722 1.5288354497555119 -1.6675332888908532 Q 1.5280654490495809 -1.6535850737395337 1.5285865756055443 -1.637480221683266 L 1.5361034313824682 -1.4051799314171007 Q 1.5376148839835801 -1.4037632290988913 1.5454548805294046 -1.4030398448801906 Q 1.5523188254354554 -1.4022848772338556 1.5662512488729576 -1.4020029023478118 Q 1.58018367231046 -1.401720927461768 1.6065370665843526 -1.4025736800078894 M 1.6391622457612018 -1.8135117639918041 Q 1.7309110998999393 -1.8164806061894128 1.7996776413252047 -1.7974544271018134 Q 1.8684441827504699 -1.778428248014214 1.9146998869141114 -1.7454831612402661 Q 1.9609555910777532 -1.7125380744663183 1.9845899159830518 -1.6690902607452305 Q 2.0082242408883504 -1.6256424470241424 2.0097086619871547 -1.5797680199547737 Q 2.01124045822741 -1.5324295154257443 1.989535757024678 -1.4860489948600084 Q 1.967831055821946 -1.4396684742942722 1.9233534367711669 -1.4025660642006326 Q 1.8788758177203873 -1.365463654106993 1.8117429600209676 -1.3415514569014537 Q 1.7446101023215477 -1.3176392596959141 1.6553013772822447 -1.314749376067391 Q 1.6474929641640543 -1.3144967086463177 1.6308921904309912 -1.314203803286481 Q 1.6142914166979279 -1.313910897926644 1.5959825525952607 -1.3135627215684476 Q 1.5776736884925933 -1.313214545210251 1.5610729147595301 -1.3129216398504142 Q 1.5444721410264668 -1.3126287344905774 1.5371359620143463 -1.3128798846032081 L 1.5395205108007235 -1.239187985800286 Q 1.5402311379224916 -1.2172268239053756 1.546482240606561 -1.2052156789740078 Q 1.5527333432906305 -1.19320453404264 1.5617231003282166 -1.1871444492328176 Q 1.5707128573658027 -1.1810843644229951 1.581040358152513 -1.178975861313719 Q 1.5913678589392233 -1.1768673582044429 1.60024707398009 -1.1742234541338288 Q 1.6091262890209566 -1.1715795500632145 1.6151484118546786 -1.1666447795202068 Q 1.6211705346884004 -1.1617100089771992 1.6215495358200103 -1.1499973892999136 Q 1.6235235000471437 -1.0889941618140508 1.5614446093985805 -1.059871597727926 Q 1.4993657187500173 -1.0307490336418015 1.3802874186976135 -1.026895855470437 Q 1.3227003719509591 -1.0250324332400231 1.2778328212947772 -1.0301758399942347 Q 1.2329652706385954 -1.035319246748446 1.2020135930518776 -1.048241000501656 Q 1.1710619154651598 -1.061162754254866 1.1544904491970676 -1.082610685450722 Q 1.1379189829289753 -1.1040586166465778 1.136939896672317 -1.1343162174795658 Q 1.1365608955407074 -1.1460288371568514 1.142251392384271 -1.1513426088314687 Q 1.1479418892278346 -1.1566563805060859 1.1563954866498616 -1.1596168775072626 Q 1.1648490840718884 -1.1625773745084391 1.1747746548104847 -1.1653412337411235 Q 1.1847002255490808 -1.168105092973808 1.1930432809743883 -1.1744817707141928 Q 1.2013863363996957 -1.1808584484545779 1.2068636451067287 -1.1927605686976683 Q 1.212340953813762 -1.2046626889407588 1.2116303266919939 -1.2266238508356693 L 1.1997233744739253 -1.594595319030393 Q 1.1990285390659743 -1.6160684551054167 1.1927853322388133 -1.627835587126841 Q 1.1865421254116524 -1.6396027191482652 1.1778042771409183 -1.645426686905053 Q 1.1690664288701842 -1.6512506546618404 1.1589829409934174 -1.653367053628025 Q 1.1488994531166505 -1.6554834525942097 1.140272146842636 -1.6578912396117889 Q 1.1316448405686212 -1.6602990266293682 1.1256227177348992 -1.6652337971723759 Q 1.1196005949011771 -1.6701685677153835 1.1192215937695675 -1.6818811873926691 Q 1.1182582992267265 -1.7116507624057702 1.1329283812883044 -1.733865350375975 Q 1.1475984633498824 -1.7560799383461796 1.1769100786622884 -1.7711959816657408 Q 1.2062216939746944 -1.786312024985302 1.2494428038080982 -1.794305836083494 Q 1.292663913641502 -1.8022996471816866 1.3487868829284957 -1.804115694270649 L 1.3551312185870255 -1.804320986550271 L 1.6391622457612018 -1.8135117639918041 M 2.321473747325356 -1.2669110344472678 L 2.4676589003229727 -1.222329302548828 L 2.478630320141691 -1.5160844008139165 L 2.321473747325356 -1.2669110344472678 M 2.1096761127557553 -1.0042829314387216 Q 2.0751147666796412 -1.014823021408321 2.051666473830452 -1.0316731648372899 Q 2.028218180981263 -1.048523308266259 2.015333078902313 -1.069043539635633 Q 2.002447976823363 -1.089563771005007 1.99962754774582 -1.112119432054429 Q 1.9968071186682768 -1.1346750931038507 2.0036439337836924 -1.1570932635316002 Q 2.0070623413414004 -1.1683023487454751 2.01369539203759 -1.1716395533959292 Q 2.02032844273378 -1.1749767580463835 2.0295898585336127 -1.1752152236815712 Q 2.038851274333446 -1.1754536893167589 2.0500719599626427 -1.1745841583176317 Q 2.0612926455918394 -1.1737146273185046 2.0738863230155613 -1.1765102412332167 Q 2.0864800004392827 -1.179305855147929 2.09977757438325 -1.1877573563574317 Q 2.1130751483272174 -1.1962088575669345 2.126632774404829 -1.215556432836627 L 2.348351134025415 -1.5308016683037082 Q 2.354611557159123 -1.539612582328184 2.358525153791285 -1.5465867880352682 Q 2.362438750423447 -1.5535609937423522 2.3641479542023007 -1.5591655363492896 Q 2.3685633972976734 -1.5736439380838778 2.362190398735128 -1.5812028074936135 Q 2.355817400172583 -1.5887616769033492 2.347097575108492 -1.5944838379956932 Q 2.3383777500444007 -1.6002059990880375 2.331648667361261 -1.6065972554546613 Q 2.3249195846781214 -1.6129885118212848 2.3286228595323046 -1.6251316874696493 Q 2.3296198950699694 -1.6284010039903625 2.330656674880166 -1.630126751211104 Q 2.3451550487810233 -1.6609285347186156 2.3726528145518597 -1.675769577932551 Q 2.400150580322696 -1.6906106211464864 2.4387199406857345 -1.6923760126097551 Q 2.4772893010487733 -1.6941414040730236 2.5260276381211124 -1.684893102990696 Q 2.5747659751934515 -1.675644801908368 2.631745491697315 -1.6582678968233533 Q 2.6798511490735275 -1.6435972310548572 2.7229186697413756 -1.6266344121670466 Q 2.7659861904092238 -1.6096715932792363 2.797920785713882 -1.5871705055820418 Q 2.8298553810185396 -1.5646694178848475 2.8471227392790834 -1.5359212218314582 Q 2.8643900975396273 -1.5071730257780693 2.860752996452993 -1.468464560461171 Q 2.8602627504051044 -1.4635092409922477 2.8596930158121534 -1.4616410601232683 Q 2.85727164379211 -1.4537012914301073 2.8516240282182634 -1.451084526741786 Q 2.8459764126444163 -1.4484677620534645 2.8387256113618 -1.4481266070425702 Q 2.8314748100791842 -1.4477854520316757 2.823503568834435 -1.4484297321431243 Q 2.815532327589686 -1.4490740122545729 2.8079966590105947 -1.4477987668091887 Q 2.8004609904315028 -1.446523521363805 2.7941012066164665 -1.4415715305892598 Q 2.787741422801431 -1.4366195398147146 2.784323015243723 -1.42541045460084 Q 2.7813319086307287 -1.4156025050386993 2.780835005194083 -1.3989081100354812 L 2.7772267620268103 -1.017146360841335 Q 2.7768888356802903 -0.9942776886382281 2.7826688988192405 -0.9797528852423519 Q 2.7884489619581903 -0.9652280818464759 2.797105841919106 -0.9559517369369426 Q 2.805762721880022 -0.9466753920274094 2.8155590710268403 -0.9411354088558344 Q 2.825355420173659 -0.9355954256842594 2.832907632194638 -0.9302293487125098 Q 2.840459844215617 -0.9248632717407602 2.8441017882988127 -0.918392526829074 Q 2.847743732382008 -0.9119217819173876 2.8443253248243003 -0.9007126967035128 Q 2.826521118794572 -0.8423320445479151 2.7583672182927956 -0.8347849756135093 Q 2.6902133177910192 -0.8272379066791036 2.5762542847832925 -0.8619917168491331 Q 2.521142949148408 -0.8787988873411967 2.4803311660217213 -0.8981366765877623 Q 2.4395193828950346 -0.917474465834328 2.414154893183391 -0.9397585743647874 Q 2.388790403471748 -0.9620426828952466 2.3800209480819947 -0.9876888112389912 Q 2.3712514926922417 -1.0133349395827358 2.380082378882987 -1.0422917430519123 Q 2.383073485495981 -1.0520996926140527 2.3890059683663036 -1.0556505477368636 Q 2.3949384512366265 -1.0592014028596743 2.4022604693433616 -1.0597760804791911 Q 2.4095824874500966 -1.060350758098708 2.418091990736209 -1.059797566947644 Q 2.4266014940223215 -1.0592443757965802 2.4342083794255323 -1.0607531438505864 Q 2.441815264828743 -1.0622619119045926 2.448317482292017 -1.0676809478963827 Q 2.4548196997552907 -1.0730999838881727 2.458665408257712 -1.0857102047537817 Q 2.461941382167182 -1.0964522447504117 2.4628026414453656 -1.1109935915881752 L 2.465157839697859 -1.1454986499498703 L 2.2755374814964773 -1.203326711134428 L 2.2545004745541926 -1.1745189987022457 Q 2.243016408096973 -1.1586229178740357 2.2395980005392655 -1.147413832660161 Q 2.236322026629795 -1.136671792663531 2.2389785355906477 -1.129480607789712 Q 2.2416350445515008 -1.1222894229158928 2.2472478588793816 -1.117259557928472 Q 2.2528606732072625 -1.1122296929410516 2.2602307073074726 -1.1079401400520292 Q 2.2676007414076826 -1.1036505871630071 2.2733559893838016 -1.0990877673928312 Q 2.2791112373599205 -1.0945249476226553 2.28198139679313 -1.0880343305747033 Q 2.284851556226339 -1.0815437135267514 2.2820028832615824 -1.0722028091818558 Q 2.275166068146167 -1.0497846387541063 2.2602387789684086 -1.0326414563377218 Q 2.24531148979065 -1.0154982739213372 2.223168200576241 -1.0056605661698004 Q 2.2010249113618325 -0.9958228584182633 2.1723976624882284 -0.9948540667678119 Q 2.1437704136146243 -0.9938852751173604 2.1096761127557553 -1.0042829314387216 M 3.6636355584938007 -0.40972666138680935 Q 3.6619978256865444 -0.3851338093601977 3.666633916377738 -0.3671129868317094 Q 3.671270007068932 -0.3490921643032212 3.678743365577513 -0.3359720774564015 Q 3.6862167240860937 -0.3228519906095818 3.694460047400672 -0.31314161143006747 Q 3.70270337071525 -0.30343123225055324 3.708771039680628 -0.29569802318138294 Q 3.714838708646006 -0.28796481411221264 3.7164697304418235 -0.280866370497471 Q 3.718100752237641 -0.27376792688272933 3.711858571182834 -0.2656329549059615 Q 3.690754054283248 -0.2381290020321274 3.6668602118811298 -0.22784426443714068 Q 3.6429663694790113 -0.21755952684215385 3.610535792192527 -0.22582682032215906 Q 3.5781052149060435 -0.23409411380216416 3.534160641136353 -0.26104384327884445 Q 3.4902160673666627 -0.28799357275552484 3.4293974673498746 -0.33466130730812943 Q 3.4022808940939817 -0.35546857749081934 3.385717538570659 -0.37679459149591094 Q 3.369154183047336 -0.3981206055010025 3.360702786634131 -0.419992211342254 Q 3.3522513902209257 -0.44186381718350554 3.350006697271776 -0.46420430596675044 Q 3.3477620043226257 -0.4865447947499953 3.350057515450961 -0.5087865210552007 Q 3.3523530265792965 -0.531028247360406 3.3572384196885316 -0.5534368154608238 Q 3.362123812797767 -0.5758453835612415 3.3679325885013327 -0.5978531480368388 L 3.4118292140041686 -0.7352693535140842 L 3.4071806585888726 -0.738836314116831 Q 3.3947845108147505 -0.7483482090574893 3.3863657161279663 -0.7554236398055809 Q 3.3779469214411817 -0.7624990705536726 3.3661452671008507 -0.7727857247302135 L 3.3022372229683032 -0.6894991068728286 Q 3.2894556141417937 -0.6728417833013516 3.2869702483515955 -0.659977711868013 Q 3.284484882561398 -0.6471136404346743 3.287890755081595 -0.6371146441152582 Q 3.291296627601792 -0.627115647795842 3.2979453659940816 -0.6189365686513284 Q 3.304594104386372 -0.6107574895068147 3.309783457207942 -0.6030827708950466 Q 3.314972810029513 -0.5954080522832783 3.3165002749174053 -0.5877736056921475 Q 3.3180277398052977 -0.5801391591010168 3.310893818599804 -0.570842048270425 Q 3.2737379789878576 -0.5224195960277593 3.2072688154857225 -0.5392648537115444 Q 3.1407996519835875 -0.5561101113953295 3.046279025205904 -0.6286383103178487 Q 3.0005682302888275 -0.663713422911526 2.9691358259252865 -0.6961411223496785 Q 2.9377034215617455 -0.7285688217878311 2.9219637268719363 -0.7581870607051321 Q 2.9062240321821275 -0.787805299622433 2.907010296859335 -0.8148979007288987 Q 2.9077965615365424 -0.8419905018353644 2.926225857984068 -0.8660080381477265 Q 2.9333597791895616 -0.8753051489783183 2.941129425132261 -0.8758056743639554 Q 2.9488990710749605 -0.8763061997495925 2.957313071331859 -0.8732349701025972 Q 2.9657270715887583 -0.8701637404556021 2.975154587341033 -0.8660070808489495 Q 2.984582103093308 -0.8618504212422969 2.995076830368476 -0.861490848920891 Q 3.005571557643644 -0.8611312765994851 3.017354034264433 -0.86686142682733 Q 3.029136510885223 -0.872591577055175 3.0425126131455236 -0.8900236598625346 L 3.2666366376847837 -1.1821078917902939 Q 3.279715493228189 -1.199152594979712 3.2823494823768344 -1.2122103562220214 Q 3.28498347152548 -1.2252681174643307 3.2819199121727016 -1.2353121802342697 Q 3.278856352819923 -1.2453562430042089 3.272401304236604 -1.2533866987902746 Q 3.2659462556532843 -1.2614171545763404 3.2608019692822365 -1.2687495600206902 Q 3.255657682911189 -1.27608196546504 3.2541302180232967 -1.2837164120561708 Q 3.2526027531354043 -1.2913508586473017 3.259736674340898 -1.3006479694778934 Q 3.2781659707884234 -1.3246655057902554 3.3045643567002814 -1.331797510414195 Q 3.3309627426121393 -1.3389295150381346 3.3644202594008785 -1.3307974209096982 Q 3.3978777761896177 -1.3226653267812616 3.4379169113362513 -1.3002510069521813 Q 3.477956046482885 -1.2778366871231013 3.523666841399961 -1.2427615745294238 L 3.733239214706218 -1.0819511006889204 Q 3.794832573958889 -1.0346888727025245 3.837427072778447 -0.9915420730193669 Q 3.8800215715980055 -0.9483952733362091 3.9065944715832925 -0.9092334970346062 Q 3.9331673715685795 -0.8700717207330033 3.9451329918397917 -0.8347329204476284 Q 3.957098612111004 -0.7993941201622532 3.9571954580074893 -0.7682388274972891 Q 3.9572923039039747 -0.7370835348323249 3.9472770077133483 -0.7099947688729675 Q 3.937261711522722 -0.6829060029136103 3.9194269085089877 -0.6596632258371307 Q 3.9001058719107755 -0.6344835506709445 3.8768343302389834 -0.6141815983197771 Q 3.8535627885671917 -0.5938796459686095 3.8242370019369005 -0.5825315319978382 Q 3.79491121530661 -0.571183418027067 3.7584275353213985 -0.5705591987311862 Q 3.7219438553361868 -0.5699349794353055 3.6761985421111354 -0.584110770379693 L 3.6636355584938007 -0.40972666138680935 M 3.464100529010043 -0.7905572468246604 Q 3.4989646946247626 -0.7638050423040591 3.532862327776183 -0.7734914513181465 Q 3.5667599609276026 -0.7831778603322337 3.597673619484742 -0.8234653405981316 L 3.606591020991609 -0.8350867291363713 Q 3.626209304306717 -0.8606537839204988 3.6445168254095526 -0.8869188890463423 Q 3.6628243465123886 -0.9131839941721858 3.671353409118537 -0.9383358620418365 Q 3.679882471724686 -0.9634877299114872 3.6752099441599633 -0.9870756960197165 Q 3.67053741659524 -1.0106636621279457 3.6438082229572886 -1.03117368559374 Q 3.627538279003753 -1.043658047703354 3.6134986447097113 -1.0458145243330124 Q 3.5994590104156696 -1.0479710009626708 3.5874377775353863 -1.0427317872606923 Q 3.575416544655103 -1.0374925735587135 3.564801001318023 -1.0268664820790854 Q 3.554185457980943 -1.0162403905994573 3.5440790696064934 -1.003069483589452 L 3.4150739944738158 -0.834946729402917 Q 3.4145696339410705 -0.8334873438321975 3.419101208441562 -0.8281637509418356 Q 3.423155270423067 -0.8238220311032061 3.4331686500321394 -0.8152153003201137 Q 3.443182029641212 -0.8066085695370213 3.464100529010043 -0.7905572468246604 M 4.34550996157199 0.20044904792020057 Q 4.323586728020417 0.21420003404263765 4.299791001396871 0.222208911467222 Q 4.275995274773326 0.23021778889180633 4.2535835927960335 0.22986556487151377 Q 4.231171910818741 0.2295133408512211 4.211332581625589 0.21947828548076664 Q 4.191493252432438 0.20944323011031202 4.177223361173305 0.18669270472660382 Q 4.168920878986174 0.1734560354124463 4.1687971423494306 0.16085321558626675 Q 4.1686734057126875 0.14825039576008725 4.174397036994426 0.13486182726241824 Q 4.180120668276164 0.12147325876474935 4.1900333883288905 0.10603353678384297 Q 4.199946108381617 0.09059381480293674 4.211716539573423 0.07168334117932565 L 4.195096793266268 0.035997142210453165 L 3.9646960180167143 0.18051222278021606 L 4.060047131048764 0.31782788498170855 L 4.142659075746758 0.28964262064794377 Q 4.170647586624515 0.2818858048252615 4.193213461949527 0.2815649303611387 Q 4.215779337274539 0.281244055897016 4.233308060416105 0.28667637658041484 Q 4.250836783557672 0.2921086972638135 4.263689370821544 0.30249138832614453 Q 4.276541958085418 0.31287407938847556 4.2848444402725505 0.326110748702633 Q 4.294444185301421 0.3414156475971276 4.29757609353771 0.3578954740156335 Q 4.300708001773999 0.37437530043413936 4.296877635144556 0.3903228411020726 Q 4.293047268515113 0.40627038177000596 4.282563013715376 0.42033943971853605 Q 4.27207875891564 0.43440849766706613 4.254705630440808 0.44530550553767667 Q 4.237746147882044 0.4559430608399393 4.215892620037884 0.46475106754988993 Q 4.194039092193725 0.47355907425984056 4.17052358971885 0.478798461072904 Q 4.147008087243975 0.4840378478859675 4.122734998644379 0.4848531604232402 Q 4.098461910044783 0.48566847296051296 4.075990207490731 0.4801664465697004 Q 4.053518504936679 0.47466442017888766 4.034425675418579 0.46214379382880566 Q 4.01533284590048 0.44962316747872366 4.002100764914739 0.42852722575928515 L 3.776377030452093 0.06865527878062772 Q 3.7457616273870444 0.019845060684671872 3.7276059372501247 -0.0215061503081935 Q 3.709450247113205 -0.06285736130105887 3.7050233701993847 -0.09610462925318702 Q 3.7005964932855644 -0.12935189720531517 3.7107783510372925 -0.1544707550531605 Q 3.720960208789021 -0.1795896129010058 3.746606255585201 -0.19567567213857368 Q 3.756533757570819 -0.20190253377892253 3.7639904705097016 -0.1996630347537661 Q 3.771447183448584 -0.19742353572860966 3.7782626559330423 -0.19161172132334303 Q 3.785078128417501 -0.1857999069180764 3.7924651356489694 -0.1786174284804336 Q 3.7998521428804377 -0.1714349500427908 3.8095631367773684 -0.16743930361595927 Q 3.819274130674299 -0.16344365718912773 3.8323150634800913 -0.16470676783666752 Q 3.845355996285884 -0.1659698784842073 3.8639700625089177 -0.1776452440598614 L 4.175859083223754 -0.37327248059415447 Q 4.19405950353072 -0.3846883936014607 4.201080397654199 -0.39600873251879254 Q 4.208101291777676 -0.4073290714361244 4.208731445782431 -0.4178110320716526 Q 4.209361599787186 -0.4282929927071809 4.206111051716392 -0.4380699968283024 Q 4.2028605036455975 -0.44784700094942387 4.20059513623788 -0.4565127936065171 Q 4.198329768830163 -0.46517858626361025 4.1995596201286975 -0.4728665892240719 Q 4.200789471427231 -0.4805545921845336 4.210716973412849 -0.48678145382488247 Q 4.236363020209029 -0.5028675130624504 4.263202471945335 -0.5009696600817393 Q 4.290041923681641 -0.49907180710102816 4.318046617811304 -0.48061333554472857 Q 4.346051311940968 -0.4621548639884289 4.375375441811708 -0.427808872340956 Q 4.404699571682448 -0.3934628806934831 4.435314974747497 -0.34465266259752725 L 4.657925278389968 0.01025553338832108 Q 4.676865315879363 0.040451685261242876 4.674329917927451 0.07316666746279843 Q 4.671794519975538 0.10588164966435404 4.655979508229809 0.13626296006979355 Q 4.640164496484079 0.16664427047523317 4.615749702305448 0.19204475379076386 Q 4.591334908126815 0.2174452371062945 4.56651615316277 0.2330123912071666 Q 4.549970316520073 0.24339049394108137 4.533490490101567 0.24652240217737037 Q 4.517010663683061 0.24965431041365943 4.502072770741751 0.24605523380579553 Q 4.4871348778004405 0.24245615719793173 4.474257823473022 0.23295338757804973 Q 4.461380769145602 0.22345061795816773 4.452299929253427 0.20897301089580794 Q 4.444256899634643 0.1961499874977179 4.440816604702915 0.18101635804804256 Q 4.437376309771187 0.16588272859836728 4.440091769453379 0.14861715350837196 Q 4.442807229135571 0.1313515784183767 4.452351541916098 0.11210825103578081 Q 4.461895854696626 0.09286492365318505 4.480081493070701 0.07223615030532143 L 4.539041710888394 0.012775380664597824 L 4.452384553060205 -0.1253823553019212 L 4.2621074316691905 -0.006034173861901582 L 4.287000096297694 0.02446297374001355 Q 4.308734984307349 0.022357789327447253 4.326950186547207 0.020154736660698447 Q 4.345165388787065 0.017951683993949696 4.359710407392631 0.018627076642573015 Q 4.3742554259981965 0.019302469291196445 4.38554760236876 0.024900069771983502 Q 4.396839778739324 0.030497670252770614 4.405142260926455 0.043734339566928127 Q 4.419412152185588 0.06648486495063632 4.41981012332357 0.08871419103344075 Q 4.420208094461553 0.11094351711624506 4.410975863859687 0.1311438626151497 Q 4.401743633257822 0.1513442081140542 4.384381591232659 0.16915086124008283 Q 4.367019549207496 0.1869575143661114 4.34550996157199 0.20044904792020057 M 4.806562005856198 1.116205595320881 Q 4.81800536610234 1.1283219954021897 4.82763728504739 1.1303428084059055 Q 4.837269203992441 1.1323636214096213 4.843010210894983 1.1311918214541754 Q 4.851143304006919 1.1295317715172937 4.855990711833541 1.1203196120764207 Q 4.860838119660163 1.1111074526355478 4.8657733447435145 1.0998839742308735 Q 4.870708569826867 1.0886604958261994 4.877230438000064 1.0791065613983215 Q 4.883752306173261 1.0695526269704436 4.895234319978346 1.0672090270595516 Q 4.925853023458574 1.0609594272971727 4.949500939742397 1.0718306205759989 Q 4.973148856026221 1.082701813854825 4.990138261881973 1.104899051904391 Q 5.007127667737726 1.1270962899539572 5.01854712353426 1.1574072943359868 Q 5.029966579330795 1.1877182987180166 5.036606779078323 1.2202506711657581 Q 5.044418778781296 1.258524050516042 5.0456597466132855 1.2939026832658043 Q 5.046900714445275 1.3292813160155665 5.040213383197819 1.3575570969841875 Q 5.033526051950362 1.3858328779528084 5.017514162156409 1.4050482295444087 Q 5.0015022723624565 1.424263581136009 4.975189324059136 1.4296343309318031 Q 4.958444720593388 1.433052080801854 4.9465914335826255 1.4262520117491313 Q 4.934738146571863 1.419451942696409 4.924725121681578 1.4057977245233984 Q 4.914712096791294 1.3921435063503882 4.9056850659037945 1.373553724394383 Q 4.896658035016296 1.3549639424383775 4.885663593793361 1.3352806837437416 Q 4.874669152570426 1.315597425049106 4.860037757035259 1.2964073327056844 Q 4.845406361500091 1.2772172403622633 4.824951058175429 1.2624551350409292 L 4.711055546792519 1.180550846280553 L 4.497355272561167 1.43247905141056 Q 4.481245732770927 1.4512159857602818 4.473698878336358 1.4679560115558954 Q 4.466152023901788 1.4846960373515086 4.462569149657121 1.4988827528339628 Q 4.458986275412453 1.513069468316417 4.457644096012969 1.5248054398517772 Q 4.4563019166134845 1.5365414113871374 4.453177794131581 1.5456510044619447 Q 4.450053671649678 1.5547605975367516 4.4426090448815305 1.5610144362696232 Q 4.435164418113384 1.5672682750024949 4.419376649131392 1.5704907248799715 Q 4.366272335282873 1.5813298744678472 4.3303893486437675 1.5276062621520832 Q 4.294506362004662 1.4738826498363193 4.271851562866039 1.3628898497204958 Q 4.2605241632967275 1.307393449662584 4.2582382050246075 1.2620119634617373 Q 4.255952246752488 1.2166304772608902 4.263767130627383 1.1828918902692522 Q 4.271582014502278 1.1491533032776144 4.290029899133988 1.1284440422226778 Q 4.3084777837656985 1.1077347811677407 4.339096487245926 1.1014851814053621 Q 4.3510569182928895 1.0990439314981828 4.358985217372336 1.1061467832793244 Q 4.366913516451783 1.1132496350604657 4.3735091301716595 1.122368722175187 Q 4.380104743891536 1.1314878092899086 4.386597791245347 1.1388836110599114 Q 4.393090838599158 1.1462794128299145 4.402659183436729 1.144326412904171 Q 4.40887860758115 1.1430569629524379 4.415464049861827 1.1374768414540193 Q 4.422049492142503 1.1318967199556003 4.431773806014419 1.1209416096908944 L 4.5226218860757 1.016682594923171 Q 4.52786481025725 1.0106289725526525 4.530085839623318 1.003198756194199 Q 4.532306868989387 0.9957685398357455 4.5327069630144505 0.9879624726014793 Q 4.533107057039514 0.9801564053672132 4.531637390725427 0.9717352786361949 Q 4.530167724411341 0.9633141519051767 4.528507674474459 0.9551810587932414 L 4.5265546745487155 0.9456127139556704 L 4.40312302614405 0.9708064129977597 Q 4.381594250259515 0.9752006628306823 4.370805619167998 0.983382919640404 Q 4.36001698807648 0.9915651764501259 4.355555263865227 1.001446136755673 Q 4.351093539653975 1.01132709706122 4.350752103366613 1.0218621091221054 Q 4.3504106670792515 1.0323971211829908 4.349297863561149 1.0415945315145276 Q 4.348185060043047 1.0507919418460645 4.3443334789587675 1.0575582737096225 Q 4.340481897874489 1.0643246055731803 4.328999884069404 1.0666682054840724 Q 4.269197728834585 1.0788744550199685 4.230048722389281 1.0225782056115733 Q 4.190899715943977 0.9662819562031782 4.167073116849908 0.8495481491848121 Q 4.155550417288022 0.7930949146431433 4.153074075393107 0.7480014620613793 Q 4.150597733498191 0.7029080094796152 4.158129500123782 0.6702239069680216 Q 4.165661266749373 0.6375398044564279 4.184016417754575 0.6175969942624525 Q 4.2023715687597765 0.597654184068477 4.232033437756246 0.5915998842986727 Q 4.243515451561331 0.5892562843877807 4.249710632556502 0.5939719663293079 Q 4.2559058135516725 0.5986876482708353 4.260245983317031 0.6065228750241305 Q 4.264586153082388 0.6143581017774257 4.2689800642156674 0.6236774052545001 Q 4.273373975348947 0.6329967087315745 4.281063065807454 0.6401483855108595 Q 4.288752156265962 0.6473000622901446 4.301405970026493 0.6506974692817952 Q 4.314059783787024 0.6540948762734458 4.335588559671559 0.6497006264405232 L 4.696315160047985 0.5760725292399984 Q 4.717365518690642 0.5717759294033631 4.72791494116122 0.5636424975917849 Q 4.738464363631799 0.5555090657802066 4.742735704220255 0.5459161390937424 Q 4.747007044808711 0.5363232124072782 4.747397306094217 0.5260274089673321 Q 4.7477875673797225 0.515731605527386 4.74870998727503 0.506822228814932 Q 4.749632407170336 0.49791285210247793 4.753483988254615 0.49114652023892 Q 4.757335569338894 0.48438018837536223 4.768817583143979 0.4820365884644702 Q 4.798479452140449 0.47598228869466574 4.822942644283377 0.48718542422093963 Q 4.847405836426305 0.4983885597472135 4.867143852587792 0.5255066124704386 Q 4.886881868749279 0.5526246651936636 4.902275476174915 0.5950815678756741 Q 4.917669083600551 0.6375384705576846 4.9291917831624374 0.6939917050993535 Q 4.941105082709472 0.7523586086085365 4.943825549595105 0.798648104294997 Q 4.946546016480738 0.8449375999814575 4.939111899851435 0.8781001197349296 Q 4.931677783222131 0.9112626394884018 4.913561840837869 0.9311566246842337 Q 4.895445898453607 0.9510506098800655 4.865784029457137 0.9571049096498699 Q 4.854302015652051 0.9594485095607619 4.84810683465688 0.9547328276192346 Q 4.841911653661709 0.9500171456777072 4.837522658898209 0.9419427103034728 Q 4.833133664134707 0.9338682749292383 4.828690928003285 0.9243097628312247 Q 4.824248191871861 0.914751250733211 4.81651027641521 0.9073603653329866 Q 4.808772360958559 0.8999694799327623 4.795879338577089 0.8966208979392554 Q 4.782986316195618 0.8932723159457483 4.7619359575529625 0.8975689157823837 L 4.612669778086855 0.9280357146239802 Q 4.615403977982895 0.9414313973965796 4.619866379593433 0.955969381905953 Q 4.624328781203971 0.9705073664153266 4.635859958706843 0.9806124475328342 L 4.806562005856198 1.116205595320881 M 4.543204431877874 2.3201481232386816 L 4.58695402951214 2.104322846418109 L 4.440996802394014 2.07473608970314 Q 4.41946212954052 2.0703708305156856 4.406285850403175 2.0739275400930706 Q 4.39310957126583 2.077484249670455 4.385142339877617 2.084837043935477 Q 4.3771751084894035 2.092189838200499 4.372745246107092 2.10175432340019 Q 4.36831538372478 2.111318808599881 4.36374649321586 2.119111369040135 Q 4.359177602706939 2.1269039294803886 4.352988776591136 2.131627948430914 Q 4.346799950475333 2.13635196738144 4.335314791620137 2.134023829148131 Q 4.275496255915987 2.12189810918298 4.261450569067381 2.05478156067177 Q 4.247404882218774 1.9876650121605604 4.271074287590749 1.8708992304660599 Q 4.2825209672378515 1.8144305327613424 4.29785739610839 1.771952942382141 Q 4.31319382497893 1.7294753520029398 4.332895311102051 1.7023307483029193 Q 4.352596797225173 1.6751861446028988 4.377284157269606 1.6639985845072742 Q 4.401971517314039 1.6528110244116498 4.431641511023297 1.6588253815143648 Q 4.443126669878494 1.661153519747674 4.446987357760989 1.6679146596523449 Q 4.4508480456434825 1.674675799557016 4.451782460419344 1.6835839262340635 Q 4.452716875195206 1.6924920529111112 4.453120998549086 1.7027873215651979 Q 4.453525121902968 1.7130825902192846 4.457809374678262 1.7226697572143805 Q 4.462093627453555 1.7322569242094767 4.472414717192097 1.7403276418703841 Q 4.48273580693064 1.7483983595312915 4.504270479784134 1.7527636187187459 L 4.865095887151566 1.825905961548538 Q 4.886152011719426 1.8301742149762712 4.899040513834095 1.8268082766618425 Q 4.911929015948762 1.8234423383474136 4.919608470314298 1.8162803153453477 Q 4.927287924679835 1.809118292343282 4.931669284182285 1.7997930812864074 Q 4.936050643684736 1.790467870229533 4.94038026005084 1.7826268069094187 Q 4.944709876416944 1.7747857435893042 4.950898702532747 1.7700617246387786 Q 4.95708752864855 1.7653377056882529 4.968572687503746 1.767665843921562 Q 4.998242681213005 1.773680201024277 5.016385392732743 1.7935497766149497 Q 5.034528104252481 1.8134193522056226 5.042103870410451 1.846093284209752 Q 5.049679636568422 1.8787672162138813 5.04726401140998 1.923863962105555 Q 5.044848386251537 1.9689607079972293 5.033401706604434 2.0254294057019466 Q 5.021567003918447 2.0838122965491968 5.005988060648605 2.1274862576424813 Q 4.990409117378763 2.1711602187357655 4.97061062549592 2.1987833707214195 Q 4.950812133613077 2.226406522707073 4.92636404771146 2.2376425856825577 Q 4.901915961809844 2.248878648658043 4.872245968100586 2.2428642915553283 Q 4.860760809245389 2.240536153322019 4.856900121362894 2.2337750134173477 Q 4.853039433480401 2.2270138735126768 4.852105018704539 2.2181057468356293 Q 4.8511706039286775 2.209197620158582 4.850814983454657 2.1986630773616787 Q 4.8504593629806365 2.1881285345647754 4.846175110205342 2.178541367569679 Q 4.841890857430049 2.168954200574583 4.83133049354869 2.160834980033815 Q 4.8207701296673315 2.152715759493047 4.799714005099471 2.1484475060653137 L 4.679119837119904 2.124002054615569 L 4.635564251005081 2.338870234864875 L 4.756158418984647 2.36331568631462 Q 4.777214543552508 2.367583939742353 4.790103045667176 2.3642180014279246 Q 4.8029915477818435 2.3608520631134957 4.81067100214738 2.35369004011143 Q 4.818350456512916 2.346528017109364 4.822780318895227 2.3369635319096727 Q 4.827210181277539 2.3273990467099814 4.831539797643643 2.3195579833898674 Q 4.835869414009746 2.3117169200697534 4.842058240125549 2.3069929011192274 Q 4.848247066241353 2.302268882168702 4.85973222509655 2.304597020402011 Q 4.919072212515066 2.316625734607441 4.933166402243533 2.383503008975834 Q 4.947260591972 2.450380283344227 4.923494180840304 2.5676246133243605 Q 4.900115792747492 2.6829547501619615 4.8611396256505355 2.7388251110584836 Q 4.822163458553578 2.794695471955006 4.762823471135061 2.782666757749576 Q 4.751338312279865 2.780338619516267 4.747526127277231 2.7733382054687796 Q 4.7437139422745975 2.766337791421292 4.742876533258457 2.7569511164586107 Q 4.742039124242317 2.74756444149593 4.741780509528017 2.736551350413394 Q 4.741521894813718 2.7255382593308575 4.7373346477981455 2.7154725440501277 Q 4.733147400782573 2.705406828769399 4.722635539781074 2.697048334085814 Q 4.712123678779577 2.6886898394022296 4.691067554211716 2.684421585974496 L 4.332156339986817 2.611667266183589 Q 4.310621667133323 2.6073020069961346 4.297445387995978 2.610858716573519 Q 4.284269108858632 2.614415426150904 4.276253374590559 2.6220074945587424 Q 4.268237640322485 2.6295995629665807 4.263710772180453 2.639642596451905 Q 4.259183904038419 2.64968562993723 4.254518007769778 2.6579567386631164 Q 4.249852111501136 2.6662278473890035 4.243614782505473 2.6711911404823456 Q 4.237377453509809 2.6761544335756877 4.225892294654612 2.673826295342379 Q 4.196222300945354 2.667811938239664 4.1778403152828 2.6478938597691304 Q 4.159458329620245 2.627975781298597 4.151931066342135 2.595062575151651 Q 4.144403803064025 2.5621493690047052 4.146964936862049 2.5163348006845814 Q 4.149526070660073 2.4705202323644575 4.161166761826618 2.413094438088474 Q 4.173001464512606 2.3547115472412234 4.188580407782448 2.3110375861479393 Q 4.20415935105229 2.2673636250546547 4.223957842935133 2.239740473069001 Q 4.243756334817975 2.2121173210833476 4.268443694862409 2.200929760987723 Q 4.293131054906842 2.1897422008920984 4.322801048616101 2.1957565579948137 Q 4.334286207471298 2.198084696228123 4.338146895353791 2.204845836132794 Q 4.342007583236286 2.211606976037465 4.343181272154964 2.220563605594373 Q 4.344354961073641 2.2295202351512815 4.3447105815476625 2.2400547779481847 Q 4.345066202021683 2.2505893207450876 4.349589728939793 2.2602249906200442 Q 4.354113255857904 2.2698606604950013 4.364673619739262 2.277979881035769 Q 4.375233983620621 2.286099101576537 4.397247204759749 2.290561366523713 L 4.543204431877874 2.3201481232386816" fill="#ffffff" fill-rule="nonzero"></path></g><g transform="matrix(1,0,0,1,0,0)" clip-path="url(#SvgjsClipPath57708)"><g clip-path="url(#SvgjsClipPath576955685e763-70f3-41d9-8cd1-c7a11be77e1d)"><path d=" M 3.239457668047395 0 L 3.239457668047395 3.231856908493898 C 2.8892247949772845 2.9164578403581514 2.454365406127017 2.7104207832105853 1.9884702699767418 2.639137126799331 C 2.4131082396105037 2.4840524780002635 2.695541783402603 2.08009840569947 2.695410640190805 1.6280269109674206 L 1.923340825729365 1.6280269109674206 C 2.2630203829372926 1.501101688834343 2.4881777275395565 1.1765971405767102 2.4881679118147786 0.8139785896141969 C 2.488177727540827 0.4513600386547357 2.2630203829397004 0.12685549039631114 1.9233408257322235 -0.00006973173795415828 Z" fill="#a4cb6a" transform="matrix(1,0,0,1,0,0)" fill-rule="evenodd"></path></g><g clip-path="url(#SvgjsClipPath576955685e763-70f3-41d9-8cd1-c7a11be77e1d)"><path d=" M 0 0 L 1.3161168423180347 0 C 0.9764242973983143 0.12690851835143327 0.751259747212825 0.4514234515446956 0.7512897562326208 0.8140483213532214 C 0.7512597472127904 1.1766731911616644 0.9764242973982475 1.5011881243549474 1.3161168423179541 1.6280966427064152 L 0.54397729611757 1.6280966427064152 C 0.543877340788198 2.0801795573394695 0.8263350419633555 2.4841283360197384 1.25098739807072 2.639206858538376 C 0.785088648426998 2.710478714136409 0.35022602924623897 2.9165173018196016 0 3.2319266402329214 Z" fill="#64c6c4" transform="matrix(1,0,0,1,0,0)" fill-rule="evenodd"></path></g><g clip-path="url(#SvgjsClipPath576955685e763-70f3-41d9-8cd1-c7a11be77e1d)"><path d=" M 1.316116842318032 1.6280966427064436 L 1.6197288340236968 1.6280966427064436 L 1.9233408257293614 1.6280966427064436 L 1.6197288340236968 1.0208726592951147 L 1.316116842318032 1.6280966427064436 Z" fill="#a4cb6a" transform="matrix(1,0,0,1,0,0)" fill-rule="evenodd"></path></g><g clip-path="url(#SvgjsClipPath576955685e763-70f3-41d9-8cd1-c7a11be77e1d)"><path d=" M 1.9884005382377181 2.6389279315822622 L 1.6197288340236968 3.231856908493898 L 1.2509873980706527 2.6389279315822622 L 1.9884005382377181 2.6389279315822622 Z" fill="#64c6c4" transform="matrix(1,0,0,1,0,0)" fill-rule="evenodd"></path></g></g><g><path d=" M -0.7961950821714923 1.6159284542469496 A 2.415889050325678 2.415889050325678 0 0 1 4.035583018479864 1.6159284542469496 A 2.415889050325678 2.415889050325678 0 0 1 -0.7961950821714918 1.6159284542469496 Z M -0.7461950821714924 1.6159284542469496 A 2.365889050325678 2.365889050325678 0 0 0 3.9855830184798635 1.6159284542469496 A 2.365889050325678 2.365889050325678 0 0 0 -0.7461950821714924 1.6159284542469496 Z" fill="#ffffff" fill-rule="nonzero"></path></g><g><path d=" M -2.193061193187402 1.6159284542469496 A 3.8127551613415873 3.8127551613415873 0 0 1 5.432449129495772 1.6159284542469496 A 3.8127551613415873 3.8127551613415873 0 0 1 -2.1930611931874022 1.6159284542469496 Z M -2.143061193187402 1.6159284542469496 A 3.7627551613415875 3.7627551613415875 0 0 0 5.3824491294957735 1.6159284542469496 A 3.7627551613415875 3.7627551613415875 0 0 0 -2.1430611931874015 1.6159284542469496 Z" fill="#ffffff" fill-rule="nonzero"></path></g><g transform="matrix(-0.6978635173013322,-0.7162307667364012,0.7162307667364012,-0.6978635173013322,-3.9063500260512196,4.954337652493613)"><g clip-path="url(#SvgjsClipPath57709)"><path d=" M -1.0011283517299516 3.3669766006330604 L -0.9269772486857706 3.408349486375248 C -0.9142472228405389 3.4154561889614548 -0.9022594901492673 3.4154561889614548 -0.8895294643040357 3.408349486375248 L -0.8154848169609592 3.3669766006330604 C -0.8051940991875217 3.3612482700498165 -0.8001018474532815 3.3553075108566595 -0.8001018474532815 3.3403506055495473 L -0.8001018474532815 3.255590383213206 C -0.8001018474532815 3.241269677453171 -0.8053003134924785 3.2354351325649704 -0.8148475311312178 3.2300249621043022 L -0.888468528235205 3.1887588941574405 C -0.9015171969953073 3.1814392801690246 -0.9149895159944991 3.1814392801690246 -0.9281431920788201 3.1887588941574405 L -1.0017647926731763 3.2300249621043022 C -1.01120615810118 3.2354351325649704 -1.016404141348082 3.241269677453171 -1.016404141348082 3.255590383213206 L -1.016404141348082 3.3403506055495473 C -1.016404141348082 3.3553075108566595 -1.011312251708063 3.3612482700498165 -1.0011283517299516 3.3669766006330604 Z" fill="#ffffff" transform="matrix(1,0,0,1,0,0)" fill-rule="nonzero"></path></g></g><g transform="matrix(0.6978635173013322,-0.7162307667364012,-0.7162307667364012,-0.6978635173013322,3.617487662383824,8.575448879745837)"><g clip-path="url(#SvgjsClipPath57710)"><path d=" M 4.054660083263269 3.3669766006330604 L 4.12881118630745 3.408349486375248 C 4.141541212152681 3.4154561889614548 4.153528944843953 3.4154561889614548 4.166258970689185 3.408349486375248 L 4.240303618032262 3.3669766006330604 C 4.250594335805699 3.3612482700498165 4.255686587539939 3.3553075108566595 4.255686587539939 3.3403506055495473 L 4.255686587539939 3.255590383213206 C 4.255686587539939 3.241269677453171 4.250488121500742 3.2354351325649704 4.240940903862003 3.2300249621043022 L 4.167319906758016 3.1887588941574405 C 4.154271237997913 3.1814392801690246 4.140798918998722 3.1814392801690246 4.127645242914401 3.1887588941574405 L 4.054023642320044 3.2300249621043022 C 4.044582276892041 3.2354351325649704 4.0393842936451385 3.241269677453171 4.0393842936451385 3.255590383213206 L 4.0393842936451385 3.3403506055495473 C 4.0393842936451385 3.3553075108566595 4.044476183285157 3.3612482700498165 4.054660083263269 3.3669766006330604 Z" fill="#ffffff" transform="matrix(1,0,0,1,0,0)" fill-rule="nonzero"></path></g></g></g><defs><clipPath id="SvgjsClipPath57708"><path d=" M 0 0 h 3.2393879363083706 v 3.231856908493899 h -3.2393879363083706 Z"></path></clipPath><clipPath id="SvgjsClipPath576955685e763-70f3-41d9-8cd1-c7a11be77e1d"><path d=" M 0 2.8771544580660185e-16 L 3.2393879363083706 2.8771544580660185e-16 L 3.2393879363083706 3.231856908493898 L 0 3.231856908493898 Z"></path></clipPath><clipPath id="SvgjsClipPath57709"><path d=" M -1.077177552682942 3.1260885918945096 h 0.3379546066810344 v 0.35002441406249996 h -0.3379546066810344 Z"></path></clipPath><clipPath id="SvgjsClipPath57710"><path d=" M 3.978610882310279 3.1260885918945096 h 0.3379546066810344 v 0.35002441406249996 h -0.3379546066810344 Z"></path></clipPath></defs></svg>